<svg name="home" color="#000000" xmlns="http://www.w3.org/2000/svg" viewBox="0 0 100 100"><path d="M50 0C22.39 0 0 22.39 0 50s22.39 50 50 50 50-22.39 50-50S77.61 0 50 0zM24.32 57.6c-1.98.95-4.35.13-5.31-1.85l-.33-.68-.33.68a3.987 3.987 0 0 1-5.31 1.85c-1.96-.95-2.78-3.33-1.82-5.3l3.88-8.02a3.945 3.945 0 0 1 3.4-2.24h.37c1.46.07 2.76.93 3.4 2.24l3.88 8.02c.95 1.97.13 4.35-1.83 5.3zm11.56-3.58c0 2.19-1.78 3.97-3.97 3.97-2.18 0-3.96-1.78-3.96-3.97v-8.03c0-2.2 1.78-3.98 3.96-3.98 2.19 0 3.97 1.79 3.97 3.98v8.03zM50.8 57.6c-1.98.95-4.35.13-5.31-1.85l-.33-.68-.33.68a3.987 3.987 0 0 1-5.31 1.85c-1.96-.95-2.78-3.33-1.83-5.3l3.88-8.02a3.945 3.945 0 0 1 3.4-2.24h.37c1.46.07 2.77.93 3.4 2.24l3.88 8.02c.97 1.97.15 4.35-1.82 5.3zm11.59-3.58c0 2.19-1.78 3.97-3.97 3.97-2.18 0-3.95-1.78-3.95-3.97v-8.03c0-2.2 1.77-3.98 3.95-3.98 2.2 0 3.97 1.79 3.97 3.98v8.03zm15.07 3.58c-1.98.95-4.35.13-5.31-1.85l-.33-.68-.33.68a3.99 3.99 0 0 1-5.31 1.85 3.96 3.96 0 0 1-1.83-5.3l3.88-8.02a3.945 3.945 0 0 1 3.4-2.24H72c1.46.07 2.77.93 3.4 2.24l3.88 8.02c.96 1.97.14 4.35-1.82 5.3zm7.75.39c-2.18 0-3.96-1.78-3.96-3.97v-8.03c0-2.2 1.78-3.98 3.96-3.98 2.2 0 3.97 1.79 3.97 3.98v8.03c0 2.19-1.78 3.97-3.97 3.97z"></path></svg>