<?xml version="1.0" encoding="utf-8"?>
<!-- Generator: Adobe Illustrator 25.0.1, SVG Export Plug-In . SVG Version: 6.00 Build 0)  -->
<svg version="1.1" id="Ebene_1" xmlns="http://www.w3.org/2000/svg" xmlns:xlink="http://www.w3.org/1999/xlink" x="0px" y="0px"
	 viewBox="0 0 80 80" style="enable-background:new 0 0 80 80;" xml:space="preserve">
<path d="M70,0H10C4.5,0,0,4.5,0,10v60c0,5.5,4.5,10,10,10h60c5.5,0,10-4.5,10-10V10C80,4.5,75.5,0,70,0z M44,8h25c1.7,0,3,1.3,3,3
	v25H44V8z M36,72H11c-1.7,0-3-1.3-3-3V11c0-1.7,1.3-3,3-3h25V72z M44,44h28v25c0,1.7-1.3,3-3,3H44V44z"/>
</svg>
