<?xml version="1.0" encoding="utf-8"?>
<!-- Generator: Adobe Illustrator 25.0.1, SVG Export Plug-In . SVG Version: 6.00 Build 0)  -->
<svg version="1.1" id="Ebene_1" xmlns="http://www.w3.org/2000/svg" xmlns:xlink="http://www.w3.org/1999/xlink" x="0px" y="0px"
	 viewBox="0 0 80 80" style="enable-background:new 0 0 80 80;" xml:space="preserve">
<path d="M56.6,2c-5.9,0-11.8,2.3-16.4,6.5L40,8.6l-0.2-0.2C35.2,4.3,29.3,2,23.4,2C19.7,2,16,2.9,12.6,4.8c-4,2.2-7.4,5.6-9.7,9.9
	l0,0c-4.7,8.9-3.6,19.7,2.8,27.4L40,78l34.3-35.9c6.4-7.7,7.5-18.6,2.8-27.4l0,0c-2.3-4.4-5.7-7.8-9.7-9.9C64,2.9,60.3,2,56.6,2
	L56.6,2z"/>
</svg>
