<?xml version="1.0" encoding="utf-8"?>
<!-- Generator: Adobe Illustrator 25.0.1, SVG Export Plug-In . SVG Version: 6.00 Build 0)  -->
<svg version="1.1" id="Ebene_1" xmlns="http://www.w3.org/2000/svg" xmlns:xlink="http://www.w3.org/1999/xlink" x="0px" y="0px"
	 viewBox="0 0 80 80" style="enable-background:new 0 0 80 80;" xml:space="preserve">
<path d="M76.3,61.6L70.9,27c-0.9-6.3-6.3-11-12.5-11h-1.9l0,0c0-8.8-7.4-16-16.5-16S23.5,7.2,23.5,16l0,0h-1.9
	C15.4,16,10,20.7,9.1,27.1L3.7,61.6C2.2,71.3,9.6,80,19.1,80h41.8C70.4,80,77.8,71.3,76.3,61.6z M31.4,16c0-4.6,3.8-8.3,8.6-8.3
	s8.6,3.7,8.6,8.3l0,0H31.4L31.4,16z M66.5,69.4C65,71.1,63,72,60.9,72H19.1c-2.2,0-4.2-0.9-5.6-2.6c-1.5-1.8-2.2-4.2-1.9-6.6
	L17,28.3l0,0l0,0c0.4-2.4,2.3-4.2,4.6-4.2h1.9v12h7.9v-7.7v-3V24h17.2v1.3v3V36h7.9V24h1.9c2.3,0,4.3,1.8,4.6,4.2l0,0l0,0l5.4,34.5
	C68.8,65.2,68.1,67.6,66.5,69.4z"/>
</svg>
