<?xml version="1.0" encoding="utf-8"?>
<!-- Generator: Adobe Illustrator 25.0.1, SVG Export Plug-In . SVG Version: 6.00 Build 0)  -->
<svg version="1.1" id="tbs-logo" xmlns="http://www.w3.org/2000/svg" xmlns:xlink="http://www.w3.org/1999/xlink" x="0px" y="0px"
	 viewBox="0 0 155.1 100" style="enable-background:new 0 0 155.1 100;" xml:space="preserve">
<style type="text/css">
	.st0{fill:#EDF0F2;}
</style>
<g id="color-2">
	<polygon class="st0" points="60,10 60,20 60,30 60,40 70,40 70,10 	"/>
	<rect x="50" class="st0" width="10" height="10"/>
	<polygon class="st0" points="20,30 20,40 30,40 30,20 20,20 	"/>
	<polygon class="st0" points="20,70 20,80 30,80 30,60 20,60 	"/>
	<rect x="50" y="40" class="st0" width="10" height="10"/>
	<rect x="50" y="90" class="st0" width="10" height="10"/>
	<rect x="60" y="50" class="st0" width="10" height="40"/>
</g>
<g id="color-1">
	<path d="M50,10V0H0v100h50V90h10V50H50V40h10V10H50z M40,80H20V60h20V80z M20,40V20h20v20H20z"/>
	<g>
		<path d="M102,50.1c1.9-0.7,3.2-2.2,3.2-4.6c0-3.4-2.4-5.6-6.8-5.6H90v20.5h8.4c4.3,0,7-1.9,7-5.4C105.4,52.4,104,50.9,102,50.1z
			 M94.4,43.7h3.7c1.8,0,2.5,1.4,2.5,2.4c0,1.1-0.7,2.4-2.5,2.4h-3.7V43.7z M98.4,56.6h-4v-4.8h4c1.5,0,2.5,1,2.5,2.4
			C101,55.7,99.9,56.6,98.4,56.6z"/>
		<path d="M112.3,51.5c-3.1,0.3-5.1,1.6-5.1,4.4c0,2.7,1.8,4.4,4.8,4.4c2.1,0,3.6-0.9,4.1-2.2l0.3,1.8h3.8v-8.1c0-3.7-2-6.2-6.3-6.2
			c-3.8,0-6.3,2.1-6.3,5.2h3.6c0-1.2,0.9-1.9,2.5-1.9c1.5,0,2.4,0.7,2.4,2.1v0.2L112.3,51.5z M115.9,54.1v0.8c0,2.2-1.8,2.4-2.5,2.4
			c-1.3,0-1.9-0.5-1.9-1.5c0-0.9,0.6-1.3,2.3-1.4L115.9,54.1z"/>
		<path d="M127.5,57.2c-1.3,0-1.9-0.6-1.9-1.6l-3.7,1c0.5,2.3,2.6,3.8,5.7,3.8c3.4,0,5.7-1.8,5.7-4.6c0-2.1-1.2-3.4-3.5-4l-2.5-0.6
			c-0.9-0.2-1.4-0.4-1.4-1.2c0-0.7,0.6-1.2,1.4-1.2c1,0,1.6,0.6,1.6,1.6l3.7-1c-0.5-2.3-2.5-3.7-5.2-3.7c-3.1,0-5.4,1.8-5.4,4.6
			c0,1.9,1,3.4,3.8,4.1l2.4,0.6c0.7,0.2,1,0.5,1,1C129.2,56.7,128.5,57.2,127.5,57.2z"/>
		<path d="M137.4,39.4c-1.4,0-2.4,1.1-2.4,2.4c0,1.4,1.1,2.4,2.4,2.4c1.3,0,2.4-1.1,2.4-2.4C139.8,40.5,138.7,39.4,137.4,39.4z"/>
		<rect x="135.2" y="46.5" width="4.3" height="13.9"/>
		<path d="M148.7,56.6c-1.8,0-2.8-1.3-2.8-3.6c0-2.3,1-3.5,2.8-3.5c1.3,0,2.3,0.6,2.6,2.1l3.9-1c-0.7-2.9-3.1-4.9-6.4-4.9
			c-4.1,0-7.1,3-7.1,7.3c0,4.4,2.8,7.4,6.8,7.4c3.5,0,6-1.9,6.7-4.9l-3.9-1C150.9,55.9,149.9,56.6,148.7,56.6z"/>
	</g>
	<g>
		<path d="M130,31c3.1,0,5.6-1.7,6.5-4.2l-3.7-1c-0.3,0.9-1.3,1.6-2.7,1.6c-1.8,0-2.8-1-2.8-2.7h9.3v-1.1c0-4.4-2.5-7.3-6.6-7.3
			c-4.1,0-6.9,2.9-6.9,7.4C123.2,28,126,31,130,31z M129.9,19.8c1.5,0,2.5,0.9,2.5,2.3h-5C127.4,20.7,128.4,19.8,129.9,19.8z"/>
		<path d="M96.5,31h4.5V14.3h6.5h0.2V31h4.3v-7.6c0-2.6,2-2.8,2.8-2.8c0.7,0,2.4,0.2,2.4,2.9V31h4.3v-8.6c0-3.4-1.7-5.8-5.2-5.8
			c-1.8,0-3.4,0.7-4.3,1.9V10h-1.8h-2.6h-0.2H90v4.3h6.5V31z"/>
	</g>
	<g>
		<path d="M99.8,77.7l-3.2-0.8c-1.3-0.3-1.9-0.9-1.9-2c0-1.3,0.9-2.1,2.7-2.1c1.6,0,2.6,0.7,2.6,2.3l4.3-1.2
			c-0.6-3.1-3.1-5.2-6.9-5.2c-4.3,0-7.2,2.7-7.2,6.4c0,2.6,1.5,4.9,5.4,6l3.3,0.9c1.3,0.4,1.9,0.9,1.9,1.9c0,1.3-1.1,2.1-3.2,2.1
			c-2,0-3.3-0.8-3.3-2.3L90,84.8c0.6,3.2,3.5,5.2,7.5,5.2c4.6,0,7.7-2.5,7.7-6.3C105.2,80.9,103.5,78.6,99.8,77.7z"/>
		<rect x="107.4" y="76.1" width="4.3" height="13.9"/>
		<path d="M109.6,69.1c-1.4,0-2.4,1.1-2.4,2.4c0,1.4,1.1,2.4,2.4,2.4c1.3,0,2.4-1.1,2.4-2.4C112,70.1,110.9,69.1,109.6,69.1z"/>
		<polygon points="120.6,71.8 116.3,71.8 116.3,76.1 113.8,76.1 113.8,79.7 116.3,79.7 116.3,90 120.6,90 120.6,79.7 123.2,79.7 
			123.2,76.1 120.6,76.1 		"/>
		<path d="M131.8,75.3c-4.1,0-6.9,2.9-6.9,7.4c0,4.4,2.8,7.3,6.8,7.3c3.1,0,5.6-1.7,6.5-4.2l-3.7-1c-0.3,0.9-1.3,1.6-2.7,1.6
			c-1.8,0-2.8-1-2.8-2.7h9.3v-1.1C138.4,78.2,135.9,75.3,131.8,75.3z M129.1,81.1c0-1.4,1-2.3,2.5-2.3c1.5,0,2.5,0.9,2.5,2.3H129.1z
			"/>
	</g>
</g>
</svg>
