<svg xmlns="http://www.w3.org/2000/svg" viewBox="0 0 298.683 149.679">
	<g class="sc-fnwBNb cGLZhf"><path fill="#000000" d="M343.488,150.769h-78L226.367,82.937,265.48,15.106h78L382.6,82.937ZM278.144,67.561a30.289,30.289,0,1,0,41.378-11.077,30.31,30.31,0,0,0-41.378,11.077m-152.4-7.234,14.7,8.364-11.986,20.8-14.7-8.364L83.918,132.905l43.864,25.323,23.967-41.378,52.455,30.3a23.851,23.851,0,0,0,23.741-41.373L175.716,75.251l23.741-41.378L155.6,8.55Z" transform="translate(-83.918 -8.55)">
		
	</path>
</g>
<g>
	<path fill="#000000" d="M149.876,19.341a4.789,4.789,0,0,1-4.7-4.7,4.7,4.7,0,1,1,4.7,4.7Zm0-8.872a4.173,4.173,0,0,0,0,8.347,4.231,4.231,0,0,0,4.173-4.173A4.353,4.353,0,0,0,149.876,10.469Zm1.391,6.608a1.3,1.3,0,0,1-.174-.869c0-.869-.348-1.217-1.391-1.217h-1.043v2.087h-.7V12.034H149.7c1.217,0,2.087.348,2.087,1.391a1.159,1.159,0,0,1-.869,1.217c.7.348.869.7.869,1.565a1.3,1.3,0,0,0,.174.869ZM150.05,12.73h-1.391v1.739h1.217c.7,0,1.391-.174,1.391-.869C151.267,13.078,150.919,12.73,150.05,12.73Z" transform="translate(136.808 -5.079)">
		
	</path>
</g>
</svg>